<?xml version="1.0" standalone="no"?>
<!DOCTYPE svg PUBLIC "-//W3C//DTD SVG 20010904//EN"
 "http://www.w3.org/TR/2001/REC-SVG-20010904/DTD/svg10.dtd">
<svg version="1.0" xmlns="http://www.w3.org/2000/svg"
 width="145.000000pt" height="145.000000pt" viewBox="0 0 145.000000 145.000000"
 preserveAspectRatio="xMidYMid meet">
<metadata>
Created by potrace 1.11, written by Peter Selinger 2001-2013
</metadata>
<g transform="translate(0.000000,145.000000) scale(0.100000,-0.100000)"
fill="#000000" stroke="none">
<path d="M0 725 l0 -725 725 0 725 0 0 725 0 725 -725 0 -725 0 0 -725z m962
558 c66 -30 143 -105 175 -172 24 -48 28 -68 28 -142 0 -78 -3 -90 -30 -135
-17 -27 -49 -62 -70 -79 l-40 -30 61 -60 c79 -78 103 -146 87 -242 -22 -123
-94 -221 -201 -271 l-57 -27 -317 -3 -318 -3 0 71 0 70 60 0 60 0 0 455 0 455
-60 0 -60 0 0 71 0 70 318 -3 c301 -3 319 -4 364 -25z"/>
<path d="M560 980 l0 -190 147 0 c128 0 152 3 190 21 114 55 128 215 26 311
-44 42 -74 48 -224 48 l-139 0 0 -190z"/>
<path d="M560 455 l0 -196 158 3 c157 3 159 3 196 32 48 36 86 115 86 177 0
59 -43 128 -96 155 -32 15 -66 19 -191 22 l-153 4 0 -197z"/>
</g>
</svg>
